<svg width="65" height="64" viewBox="0 0 65 64" fill="none" xmlns="http://www.w3.org/2000/svg">
<path d="M43.9221 50.8467C43.9221 50.9014 43.9174 50.956 43.9067 51.0094C43.8961 51.0634 43.8807 51.1154 43.8601 51.166C43.8394 51.2167 43.8147 51.2647 43.7847 51.31C43.7547 51.3554 43.7207 51.398 43.6827 51.4367C43.6454 51.4754 43.6041 51.51 43.5594 51.54C43.5147 51.5707 43.4674 51.596 43.4181 51.6174C43.3687 51.638 43.3174 51.654 43.2647 51.6647C43.2121 51.6754 43.1587 51.6807 43.1054 51.6807C43.0514 51.6807 42.9987 51.6754 42.9461 51.6647C42.8934 51.654 42.8421 51.638 42.7927 51.6174C42.7427 51.596 42.6961 51.5707 42.6514 51.54C42.6068 51.51 42.5654 51.4754 42.5274 51.4367C42.4894 51.398 42.4561 51.3554 42.4261 51.31C42.3961 51.2647 42.3708 51.2167 42.3508 51.166C42.3301 51.1154 42.3141 51.0634 42.3041 51.0094C42.2934 50.956 42.2881 50.9014 42.2881 50.8467C42.2881 50.792 42.2934 50.738 42.3041 50.684C42.3141 50.63 42.3301 50.578 42.3508 50.5274C42.3708 50.4767 42.3961 50.4287 42.4261 50.3834C42.4561 50.338 42.4894 50.2954 42.5274 50.2567C42.5654 50.218 42.6068 50.1834 42.6514 50.1534C42.6961 50.1227 42.7427 50.0974 42.7927 50.076C42.8421 50.0554 42.8934 50.0394 42.9461 50.0287C42.9987 50.018 43.0514 50.0127 43.1054 50.0127C43.1587 50.0127 43.2121 50.018 43.2647 50.0287C43.3174 50.0394 43.3687 50.0554 43.4181 50.076C43.4674 50.0974 43.5147 50.1227 43.5594 50.1534C43.6041 50.1834 43.6454 50.218 43.6827 50.2567C43.7207 50.2954 43.7547 50.338 43.7847 50.3834C43.8147 50.4287 43.8394 50.4767 43.8601 50.5274C43.8807 50.578 43.8961 50.63 43.9067 50.684C43.9174 50.738 43.9221 50.792 43.9221 50.8467Z" fill="white"/>
<path d="M57.524 29.81L50.4347 23.5347V12.4773C50.4347 12.0407 50.0807 11.6867 49.6441 11.6867C49.2074 11.6867 48.8527 12.0407 48.8527 12.4773V22.1347L44.1007 17.928V13.2687H44.944C45.3807 13.2687 45.7354 12.9147 45.7354 12.4773C45.7354 12.0407 45.3807 11.6867 44.944 11.6867H43.3094C42.8727 11.6867 42.5187 12.0407 42.5187 12.4773V16.528L33.7614 8.77601C33.1187 8.20668 32.1121 8.20868 31.4707 8.78068L7.43339 30.2373C7.10805 30.5287 7.07939 31.0287 7.37005 31.3547C7.52672 31.5293 7.74339 31.6187 7.96072 31.6187C8.14805 31.6187 8.33672 31.552 8.48739 31.418L12.8907 27.4873V51.264C12.8907 51.7007 13.2447 52.0547 13.6814 52.0547C14.1181 52.0547 14.4727 51.7007 14.4727 51.264V26.0753L32.5247 9.96068C32.5667 9.92268 32.6701 9.92268 32.7127 9.96068L50.5 25.7047C50.494 25.744 50.488 25.7833 50.488 25.8233V51.264C50.488 51.7007 50.842 52.0547 51.2787 52.0547C51.7154 52.0547 52.07 51.7007 52.07 51.264V27.0947L56.476 30.9947C56.8027 31.2847 57.3027 31.254 57.5927 30.926C57.882 30.5993 57.8514 30.0993 57.524 29.81Z" fill="white"/>
<path d="M48.0094 12.4773C48.0094 12.532 48.004 12.5866 47.9934 12.64C47.9834 12.694 47.9674 12.746 47.9467 12.7966C47.9267 12.8473 47.9014 12.8953 47.8714 12.9406C47.8414 12.9866 47.808 13.0286 47.77 13.0673C47.732 13.106 47.6907 13.1406 47.646 13.1706C47.6014 13.2013 47.554 13.2273 47.5047 13.248C47.4547 13.2686 47.404 13.2846 47.3514 13.2953C47.2987 13.306 47.2454 13.3113 47.192 13.3113C47.138 13.3113 47.0847 13.306 47.032 13.2953C46.9794 13.2846 46.9287 13.2686 46.8787 13.248C46.8294 13.2273 46.782 13.2013 46.7374 13.1706C46.6927 13.1406 46.6514 13.106 46.614 13.0673C46.576 13.0286 46.542 12.9866 46.512 12.9406C46.482 12.8953 46.4574 12.8473 46.4367 12.7966C46.416 12.746 46.4007 12.694 46.39 12.64C46.3794 12.5866 46.374 12.532 46.374 12.4773C46.374 12.4226 46.3794 12.3686 46.39 12.3146C46.4007 12.2613 46.416 12.2086 46.4367 12.158C46.4574 12.1073 46.482 12.0593 46.512 12.014C46.542 11.9686 46.576 11.9266 46.614 11.8873C46.6514 11.8486 46.6927 11.8146 46.7374 11.784C46.782 11.7533 46.8294 11.728 46.8787 11.7066C46.9287 11.686 46.9794 11.67 47.032 11.6593C47.0847 11.6486 47.138 11.6433 47.192 11.6433C47.2454 11.6433 47.2987 11.6486 47.3514 11.6593C47.404 11.67 47.4547 11.686 47.5047 11.7066C47.554 11.728 47.6014 11.7533 47.646 11.784C47.6907 11.8146 47.732 11.8486 47.77 11.8873C47.808 11.9266 47.8414 11.9686 47.8714 12.014C47.9014 12.0593 47.9267 12.1073 47.9467 12.158C47.9674 12.2086 47.9834 12.2613 47.9934 12.3146C48.004 12.3686 48.0094 12.4226 48.0094 12.4773Z" fill="white"/>
<path d="M33.5048 20.0273C23.9408 20.0273 16.1602 28.0533 16.1602 37.918C16.1602 47.7827 23.9408 55.808 33.5048 55.808C33.7588 55.808 34.0115 55.8013 34.2628 55.79C34.4808 55.7807 34.6855 55.682 34.8275 55.5167C34.9701 55.3513 35.0381 55.134 35.0148 54.9173C34.9195 54.0153 34.6741 53.1247 34.3048 52.3427C33.9141 51.5167 33.2435 50.7113 32.3115 49.9487C32.1575 49.8227 31.9615 49.7567 31.7621 49.7713C30.9541 49.82 30.1262 49.7913 29.3155 49.6867C27.2228 49.4147 26.5588 48.9847 26.3708 48.6713C26.2242 48.4273 26.3735 48.144 26.4975 47.9267C26.6982 47.5753 26.9728 47.094 26.8302 46.5407C26.8155 46.484 26.6908 46.0307 26.3555 45.7387C26.3588 45.7333 26.3622 45.728 26.3655 45.724C26.5462 45.5153 26.6335 45.2533 26.6108 44.9807C26.5702 44.482 26.1735 44.15 26.0528 44.06C26.0495 44.058 26.0462 44.0553 26.0435 44.0527C26.0562 44.036 26.0695 44.02 26.0828 44.006C26.5748 43.6193 26.9428 42.854 26.7308 42.1813C26.5942 41.7493 26.3302 41.406 26.0208 41.0833C25.9068 40.9653 25.8088 40.8633 25.7215 40.738C25.7422 40.7287 25.7662 40.7187 25.7948 40.708C26.3102 40.522 26.7948 40.2893 27.2348 40.018C29.3648 38.702 29.4948 36.5353 29.6088 34.624C29.6455 34.0107 29.6808 33.426 29.7728 32.8713C30.3342 36.328 32.1821 39.57 35.1895 42.3393C35.6681 42.7807 36.1948 43.182 36.7035 43.57C37.7288 44.352 38.6968 45.0907 39.2728 46.1047L39.3015 46.154C39.3608 46.2553 39.5008 46.49 39.6001 46.7647C39.7128 47.0793 40.0368 47.2887 40.3708 47.2887C40.7628 47.2887 41.0961 47.0013 41.1535 46.6133C41.2261 46.118 41.2688 45.57 41.0875 44.914C40.5595 42.9893 39.0248 41.4813 37.7728 40.2493C34.3735 36.9067 33.9435 33.344 33.9501 31.716C34.9781 33.0187 36.5815 33.8807 37.9695 34.6233C38.3215 34.8113 38.6621 34.9933 38.9768 35.1747C41.7775 36.788 44.6728 38.456 44.5815 41.9893C44.5375 43.6227 43.6788 45.292 43.1708 46.1413C42.9468 46.5167 43.0688 47.002 43.4435 47.2267C43.5708 47.3027 43.7108 47.3387 43.8488 47.3387C44.1181 47.3387 44.3801 47.2013 44.5288 46.9533C45.1161 45.9707 46.1095 44.0253 46.1621 42.0307C46.2795 37.556 42.6681 35.4753 39.7661 33.804C39.4381 33.6153 39.0828 33.4247 38.7155 33.228C37.0628 32.344 34.7908 30.974 34.4821 29.6093C34.3941 29.2207 34.5048 28.9193 34.7128 28.596C35.1255 27.958 35.6368 27.51 36.0148 27.2367C37.0421 26.5893 38.0501 26.288 39.1848 26.288C40.2741 26.288 41.3628 26.5767 42.3235 26.8313C43.6868 27.1933 45.5141 28.406 47.4668 30.2473C47.7495 30.5133 48.1821 30.5353 48.4901 30.3C48.7981 30.0647 48.8895 29.6407 48.7075 29.2993C45.6528 23.58 39.8275 20.0273 33.5048 20.0273ZM42.7288 25.3027C41.6748 25.0227 40.4801 24.706 39.1848 24.706C37.7495 24.706 36.4288 25.1007 35.1481 25.9127C35.1355 25.9207 35.1228 25.9293 35.1108 25.938C34.1775 26.6073 32.5948 28.1007 32.4388 30.604C32.3541 31.1933 31.7421 36.538 36.6835 41.3967C36.9195 41.6287 37.1621 41.8673 37.4021 42.1133C36.9961 41.802 36.6115 41.4993 36.2608 41.176C32.9821 38.156 31.2715 34.706 31.1761 30.924C31.1695 30.64 31.1835 29.9807 31.2841 29.5147C31.3581 29.1713 31.1961 28.82 30.8875 28.6527C30.5781 28.486 30.1961 28.5427 29.9488 28.7913C29.4981 29.246 29.0595 30.0933 28.9355 30.3427C28.6468 30.924 28.4282 31.5587 28.2848 32.228C28.1222 32.9907 28.0755 33.7733 28.0302 34.5293C27.9255 36.278 27.8348 37.788 26.4042 38.672C26.0562 38.886 25.6702 39.0713 25.2568 39.2207C24.5328 39.4827 24.2568 39.9253 24.1528 40.2507C24.0528 40.5633 24.0188 41.0587 24.4248 41.6433C24.5815 41.8687 24.7468 42.0413 24.8795 42.18C25.0575 42.3647 25.1482 42.4627 25.2042 42.6067C25.1868 42.6587 25.1402 42.7347 25.1082 42.76C25.0822 42.7787 25.0568 42.7987 25.0335 42.8207C24.9128 42.93 24.3175 43.5153 24.4028 44.28C24.4262 44.4893 24.5215 44.846 24.8762 45.16C24.7695 45.3993 24.6862 45.7113 24.7422 46.0507C24.7968 46.3827 24.9775 46.6773 25.2582 46.8933C25.2222 46.9707 25.1635 47.0727 25.1235 47.142C25.0422 47.2853 24.9575 47.434 24.8968 47.5953C24.5728 48.4573 24.7822 49.0993 25.0148 49.486C25.7295 50.6753 27.5802 51.056 29.1122 51.2553C29.9155 51.3593 30.7348 51.3973 31.5381 51.366C32.1601 51.912 32.6195 52.4793 32.8748 53.0187C33.0515 53.3933 33.1928 53.8007 33.2948 54.2247C24.6995 54.108 17.7422 46.838 17.7422 37.918C17.7422 28.9253 24.8135 21.6093 33.5048 21.6093C37.4615 21.6093 41.2061 23.1467 44.0608 25.8073C43.6148 25.5927 43.1681 25.4187 42.7288 25.3027Z" fill="white"/>
</svg>
