<svg width="456" height="464" viewBox="0 0 456 464" fill="none" xmlns="http://www.w3.org/2000/svg">
<g clip-path="url(#clip0_181_254)">
<path d="M273.124 173.84C272.594 173.367 272.526 172.554 273.017 172.002L289.547 153.463C290.019 152.933 290.832 152.866 291.385 153.359C291.915 153.832 291.983 154.645 291.491 155.197L274.962 173.735C274.489 174.265 273.654 174.312 273.124 173.84Z" stroke="#ECD8BD" stroke-miterlimit="10"/>
<path d="M248.944 156.837C248.48 156.423 248.377 155.737 248.702 155.195L261.75 134.067C262.134 133.459 262.92 133.288 263.507 133.653C264.094 134.018 264.287 134.824 263.923 135.41L250.875 156.538C250.491 157.147 249.705 157.317 249.118 156.952C249.054 156.935 248.988 156.876 248.944 156.837Z" stroke="#ECD8BD" stroke-miterlimit="10"/>
<path d="M222.15 144.277C221.753 143.923 221.616 143.365 221.815 142.829L231 119.763C231.276 119.097 232.011 118.762 232.676 119.039C233.32 119.296 233.678 120.051 233.402 120.716L224.217 143.783C223.941 144.448 223.206 144.783 222.541 144.506C222.391 144.452 222.261 144.376 222.15 144.277Z" stroke="#ECD8BD" stroke-miterlimit="10"/>
<path d="M193.605 136.573C193.274 136.278 193.1 135.806 193.198 135.339L198.225 111.021C198.373 110.321 199.039 109.885 199.739 110.034C200.439 110.183 200.876 110.85 200.728 111.549L195.701 135.868C195.553 136.568 194.887 137.004 194.187 136.855C193.976 136.825 193.76 136.711 193.605 136.573Z" stroke="#ECD8BD" stroke-miterlimit="10"/>
<path d="M164.158 133.929C163.893 133.692 163.704 133.326 163.744 132.926L164.466 108.097C164.489 107.404 165.084 106.826 165.777 106.849C166.47 106.873 167.049 107.469 167.027 108.161L166.304 132.99C166.282 133.682 165.686 134.261 164.994 134.238C164.659 134.257 164.379 134.126 164.158 133.929Z" stroke="#ECD8BD" stroke-miterlimit="10"/>
<path d="M134.696 136.46C134.475 136.263 134.314 136 134.275 135.688L130.694 111.104C130.592 110.418 131.077 109.741 131.784 109.659C132.47 109.557 133.147 110.043 133.23 110.75L136.811 135.334C136.913 136.02 136.428 136.697 135.721 136.779C135.347 136.842 134.962 136.697 134.696 136.46Z" stroke="#ECD8BD" stroke-miterlimit="10"/>
<path d="M106.134 144.032C105.979 143.894 105.842 143.693 105.766 143.466L97.9685 119.876C97.7406 119.198 98.1173 118.464 98.776 118.259C99.4543 118.032 100.189 118.409 100.394 119.068L108.192 142.658C108.42 143.337 108.043 144.071 107.384 144.276C106.934 144.469 106.465 144.328 106.134 144.032Z" stroke="#ECD8BD" stroke-miterlimit="10"/>
<path d="M79.3202 156.492C79.2098 156.393 79.119 156.273 79.0478 156.13L67.2635 134.254C66.9128 133.624 67.1617 132.856 67.791 132.506C68.4204 132.156 69.1892 132.405 69.5399 133.035L81.3242 154.911C81.675 155.541 81.426 156.309 80.7967 156.659C80.2879 156.919 79.7179 156.846 79.3202 156.492Z" stroke="#ECD8BD" stroke-miterlimit="10"/>
<path d="M55.0899 173.393C55.0236 173.334 54.9794 173.295 54.9328 173.214L39.5344 153.701C39.0828 153.14 39.204 152.336 39.745 151.908C40.3056 151.457 41.1286 151.557 41.5384 152.12L56.9368 171.633C57.3884 172.194 57.2672 172.997 56.7262 173.426C56.2467 173.831 55.5538 173.807 55.0899 173.393Z" stroke="#ECD8BD" stroke-miterlimit="10"/>
<path d="M34.1677 194.235L15.6091 177.688C15.0789 177.215 15.0109 176.402 15.5028 175.85C15.9751 175.32 16.7884 175.253 17.3408 175.746L35.8994 192.293C36.4296 192.766 36.4976 193.579 36.0057 194.131C35.5137 194.682 34.698 194.708 34.1677 194.235Z" stroke="#ECD8BD" stroke-miterlimit="10"/>
<path d="M312.356 429.355L293.797 412.808C293.267 412.335 293.199 411.522 293.691 410.97C294.163 410.44 294.976 410.373 295.529 410.866L314.087 427.413C314.618 427.885 314.686 428.699 314.194 429.25C313.699 429.76 312.886 429.828 312.356 429.355Z" stroke="#ECD8BD" stroke-miterlimit="10"/>
<path d="M310.796 388.627C310.332 388.213 310.23 387.528 310.555 386.985C310.939 386.377 311.725 386.207 312.312 386.571L333.456 399.64C334.065 400.025 334.236 400.811 333.872 401.397C333.488 402.006 332.702 402.176 332.115 401.812L310.971 388.743C310.907 388.726 310.841 388.666 310.796 388.627Z" stroke="#ECD8BD" stroke-miterlimit="10"/>
<path d="M323.309 361.872C322.912 361.518 322.775 360.96 322.974 360.425C323.25 359.759 323.985 359.424 324.65 359.701L347.73 368.909C348.395 369.186 348.731 369.921 348.455 370.586C348.18 371.251 347.445 371.586 346.779 371.31L323.7 362.101C323.55 362.047 323.42 361.971 323.309 361.872Z" stroke="#ECD8BD" stroke-miterlimit="10"/>
<path d="M330.983 333.339C330.652 333.043 330.478 332.571 330.577 332.105C330.725 331.405 331.391 330.969 332.091 331.118L356.418 336.169C357.118 336.318 357.555 336.985 357.407 337.685C357.259 338.384 356.592 338.82 355.892 338.672L331.565 333.62C331.354 333.59 331.138 333.477 330.983 333.339Z" stroke="#ECD8BD" stroke-miterlimit="10"/>
<path d="M333.576 303.878C333.31 303.642 333.122 303.276 333.161 302.875C333.184 302.182 333.779 301.604 334.472 301.627L359.304 302.376C359.997 302.399 360.576 302.995 360.554 303.688C360.531 304.381 359.936 304.959 359.243 304.936L334.411 304.187C334.096 304.184 333.796 304.075 333.576 303.878Z" stroke="#ECD8BD" stroke-miterlimit="10"/>
<path d="M331.054 274.415C330.833 274.218 330.671 273.955 330.632 273.643C330.53 272.957 331.015 272.28 331.722 272.198L356.306 268.644C356.991 268.543 357.669 269.028 357.752 269.736C357.854 270.421 357.369 271.098 356.662 271.18L332.078 274.734C331.705 274.797 331.319 274.651 331.054 274.415Z" stroke="#ECD8BD" stroke-miterlimit="10"/>
<path d="M323.409 245.85C323.254 245.712 323.117 245.51 323.041 245.284C322.813 244.606 323.189 243.872 323.848 243.667L347.433 235.896C348.112 235.669 348.846 236.046 349.052 236.705C349.279 237.383 348.903 238.117 348.244 238.322L324.659 246.093C324.229 246.264 323.74 246.146 323.409 245.85Z" stroke="#ECD8BD" stroke-miterlimit="10"/>
<path d="M310.941 219.047C310.831 218.948 310.74 218.828 310.669 218.685C310.318 218.055 310.567 217.287 311.196 216.937L333.063 205.177C333.692 204.827 334.461 205.077 334.812 205.706C335.163 206.336 334.914 207.105 334.284 207.455L312.418 219.214C311.931 219.493 311.339 219.401 310.941 219.047Z" stroke="#ECD8BD" stroke-miterlimit="10"/>
<path d="M294.032 194.779C293.965 194.72 293.921 194.681 293.875 194.599C293.423 194.038 293.544 193.235 294.085 192.807L313.584 177.431C314.145 176.98 314.968 177.08 315.378 177.643C315.829 178.204 315.708 179.007 315.167 179.436L295.668 194.812C295.169 195.238 294.496 195.193 294.032 194.779Z" stroke="#ECD8BD" stroke-miterlimit="10"/>
</g>
<defs>
<clipPath id="clip0_181_254">
<rect width="394.481" height="204.614" fill="white" transform="translate(148.741 24.2352) rotate(41.7204)"/>
</clipPath>
</defs>
</svg>
